<svg width="1920" height="1080" viewBox="0 0 1920 1080" fill="none" xmlns="http://www.w3.org/2000/svg">
<path opacity="0.5" d="M1920 0H0V1080H1920V0Z" fill="#00A268"/>
<g opacity="0.3" filter="url(#filter0_d_1013_2059)">
<path d="M97 499V163L290 235V499H97Z" fill="black" fill-opacity="0.25"/>
<path d="M290 528H97V553H290V528Z" fill="black" fill-opacity="0.25"/>
<path d="M457 458V223L482 233V458H457Z" fill="black" fill-opacity="0.25"/>
<path d="M820 528H575V553H820V528Z" fill="black" fill-opacity="0.25"/>
<path d="M1883 498V84H1858V498H1883Z" fill="black" fill-opacity="0.25"/>
<path d="M1883 749V583H1858V749H1883Z" fill="black" fill-opacity="0.25"/>
<path d="M1883 1014V913H1858V1014H1883Z" fill="black" fill-opacity="0.25"/>
<path d="M1150 1033H538V1053H1150V1033Z" fill="black" fill-opacity="0.25"/>
<path d="M1150 28H538V48H1150V28Z" fill="black" fill-opacity="0.25"/>
<path d="M413 1033H182V1053H413V1033Z" fill="black" fill-opacity="0.25"/>
<path d="M413 28H182V48H413V28Z" fill="black" fill-opacity="0.25"/>
<path d="M1833 1033H1270V1053H1833V1033Z" fill="black" fill-opacity="0.25"/>
<path d="M1833 28H1270V48H1833V28Z" fill="black" fill-opacity="0.25"/>
<path d="M1150 528H843V553H1150V528Z" fill="black" fill-opacity="0.25"/>
<path d="M1362 528H1270V553H1362V528Z" fill="black" fill-opacity="0.25"/>
<path d="M1833 528H1691V553H1833V528Z" fill="black" fill-opacity="0.25"/>
<path d="M97 582V918L290 846V582H97Z" fill="black" fill-opacity="0.25"/>
<path d="M538 824V620.57L586 593H1147V622.11L538 824Z" fill="black" fill-opacity="0.25"/>
<path d="M1693.7 583.002C1675.33 640.142 1621.75 681.502 1558.5 681.502C1511.81 681.502 1470.38 658.962 1444.5 624.172L1275 687.002V1013.57L1833 1012.48V582.992H1693.7V583.002Z" fill="black" fill-opacity="0.25"/>
<path d="M541 257V460.43L589 488H1150V458.89L541 257Z" fill="black" fill-opacity="0.25"/>
<path d="M458 622V857L483 847V622H458Z" fill="black" fill-opacity="0.25"/>
<path d="M1226 1014V702L1201 711V1014H1226Z" fill="black" fill-opacity="0.25"/>
<path d="M538 934.872L1147 729.602L1150 996.152L1132 1012L538 1016.57V934.872Z" fill="black" fill-opacity="0.25"/>
<path d="M539 157.13L1148 362.4L1151 95.8497L1133 79.9997L539 75.4297V157.13Z" fill="black" fill-opacity="0.25"/>
<path d="M242 1015L240 1007L413 951V1015H242Z" fill="black" fill-opacity="0.25"/>
<path d="M247 70L245 78L418 134V70H247Z" fill="black" fill-opacity="0.25"/>
<path d="M1226 75V387L1201 378V75H1226Z" fill="black" fill-opacity="0.25"/>
<path d="M1559 629C1608.15 629 1648 589.153 1648 540C1648 490.847 1608.15 451 1559 451C1509.85 451 1470 490.847 1470 540C1470 589.153 1509.85 629 1559 629Z" fill="black" fill-opacity="0.25"/>
<path d="M470.81 595.28C501.445 595.28 526.28 570.445 526.28 539.81C526.28 509.175 501.445 484.34 470.81 484.34C440.175 484.34 415.34 509.175 415.34 539.81C415.34 570.445 440.175 595.28 470.81 595.28Z" fill="black" fill-opacity="0.25"/>
<path d="M531 868L761 794L769 814L531 890.45V868Z" fill="black" fill-opacity="0.25"/>
<path d="M781 788L1150 665.77V686L789 807L781 788Z" fill="black" fill-opacity="0.25"/>
<path d="M169 1010L413 930.278V908.828L163 989.998L169 1010Z" fill="black" fill-opacity="0.25"/>
<path d="M1275 623.38L1373 592L1381.94 609.19L1275.23 643.3L1275 623.38Z" fill="black" fill-opacity="0.25"/>
<path d="M527.17 212.042L757.17 286.042L765.17 266.042L527.17 189.602V212.042Z" fill="black" fill-opacity="0.25"/>
<path d="M777.17 292.039L1146.17 414.279V394.039L785.17 273.039L777.17 292.039Z" fill="black" fill-opacity="0.25"/>
<path d="M165.17 70.0391L409.17 149.769V171.209L159.17 90.0391L165.17 70.0391Z" fill="black" fill-opacity="0.25"/>
<path d="M1271.17 456.662L1369.17 488.042L1378.11 470.852L1271.4 436.742L1271.17 456.662Z" fill="black" fill-opacity="0.25"/>
<path d="M0 0H50.7L0 98.45V0Z" fill="black" fill-opacity="0.25"/>
<path d="M0 999.719L45.6 1080H0V999.719Z" fill="black" fill-opacity="0.25"/>
<path d="M94 988L90 973L324 895V886.36L390 867V835.3L411 829V886.87L94 988Z" fill="black" fill-opacity="0.25"/>
<path d="M93 98H122.19L264 145L256 170L93 115.3V98Z" fill="black" fill-opacity="0.25"/>
<path d="M274 154L409.17 201.09V246.28L383 243V216L326.96 200.14L327 193L268 174L274 154Z" fill="black" fill-opacity="0.25"/>
<path d="M342 532H312V551H342V532Z" fill="black" fill-opacity="0.25"/>
<path d="M349 436H312V455H349V436Z" fill="black" fill-opacity="0.25"/>
<path d="M458 953.259L483 946.109V1010H458V953.259Z" fill="black" fill-opacity="0.25"/>
<path d="M457 73.1719H482V140.572L457 131.132V73.1719Z" fill="black" fill-opacity="0.25"/>
<path d="M457 169.68L486 179V201.09L457 190.87V169.68Z" fill="black" fill-opacity="0.25"/>
<path d="M458 891.721L483 883.551V907.001L458 914.961V891.721Z" fill="black" fill-opacity="0.25"/>
<path d="M381 670H354V718H381V670Z" fill="black" fill-opacity="0.25"/>
<path d="M1229 531H1199V550H1229V531Z" fill="black" fill-opacity="0.25"/>
<path d="M1198 412L1225 422V444.79L1198 435V412Z" fill="black" fill-opacity="0.25"/>
<path d="M1198 646.19L1225 638V661L1198 669V646.19Z" fill="black" fill-opacity="0.25"/>
<path d="M1848 809.941H1833V856.581H1848V809.941Z" fill="black" fill-opacity="0.25"/>
<path d="M1281.23 67.5608V394.131L1449.32 456.431C1475.11 420.731 1517.09 397.491 1564.5 397.491C1628.54 397.491 1682.66 439.881 1700.37 498.131H1839.23V68.6408L1281.23 67.5508V67.5608Z" fill="black" fill-opacity="0.25"/>
</g>
<defs>
<filter id="filter0_d_1013_2059" x="0" y="0" width="1893" height="1090" filterUnits="userSpaceOnUse" color-interpolation-filters="sRGB">
<feFlood flood-opacity="0" result="BackgroundImageFix"/>
<feColorMatrix in="SourceAlpha" type="matrix" values="0 0 0 0 0 0 0 0 0 0 0 0 0 0 0 0 0 0 127 0" result="hardAlpha"/>
<feOffset dx="6" dy="6"/>
<feGaussianBlur stdDeviation="2"/>
<feComposite in2="hardAlpha" operator="out"/>
<feColorMatrix type="matrix" values="0 0 0 0 0 0 0 0 0 0 0 0 0 0 0 0 0 0 0.5 0"/>
<feBlend mode="normal" in2="BackgroundImageFix" result="effect1_dropShadow_1013_2059"/>
<feBlend mode="normal" in="SourceGraphic" in2="effect1_dropShadow_1013_2059" result="shape"/>
</filter>
</defs>
</svg>
