<svg width="1920" height="1080" viewBox="0 0 1920 1080" fill="none" xmlns="http://www.w3.org/2000/svg">
<g clip-path="url(#clip0_2320_3659)">
<rect width="1920" height="1080" fill="white"/>
<rect width="1920" height="1080" fill="#13337A"/>
<g opacity="0.33">
<path opacity="0.5" d="M1920 0H0V1080H1920V0Z" fill="#01472E"/>
<g opacity="0.3" filter="url(#filter0_d_2320_3659)">
<path d="M97 499V163L290 235V499H97Z" fill="black" fill-opacity="0.35"/>
<path d="M290 528H97V553H290V528Z" fill="black" fill-opacity="0.35"/>
<path d="M457 458V223L482 233V458H457Z" fill="black" fill-opacity="0.35"/>
<path d="M820 528H575V553H820V528Z" fill="black" fill-opacity="0.35"/>
<path d="M1883 498V84H1858V498H1883Z" fill="black" fill-opacity="0.35"/>
<path d="M1883 749V583H1858V749H1883Z" fill="black" fill-opacity="0.35"/>
<path d="M1883 1014V913H1858V1014H1883Z" fill="black" fill-opacity="0.35"/>
<path d="M1150 1033H538V1053H1150V1033Z" fill="black" fill-opacity="0.35"/>
<path d="M1150 28H538V48H1150V28Z" fill="black" fill-opacity="0.35"/>
<path d="M413 1033H182V1053H413V1033Z" fill="black" fill-opacity="0.35"/>
<path d="M413 28H182V48H413V28Z" fill="black" fill-opacity="0.35"/>
<path d="M1833 1033H1270V1053H1833V1033Z" fill="black" fill-opacity="0.35"/>
<path d="M1833 28H1270V48H1833V28Z" fill="black" fill-opacity="0.35"/>
<path d="M1150 528H843V553H1150V528Z" fill="black" fill-opacity="0.35"/>
<path d="M1362 528H1270V553H1362V528Z" fill="black" fill-opacity="0.35"/>
<path d="M1833 528H1691V553H1833V528Z" fill="black" fill-opacity="0.35"/>
<path d="M97 582V918L290 846V582H97Z" fill="black" fill-opacity="0.35"/>
<path d="M538 824V620.57L586 593H1147V622.11L538 824Z" fill="black" fill-opacity="0.35"/>
<path d="M1693.7 583C1675.33 640.14 1621.75 681.5 1558.5 681.5C1511.81 681.5 1470.38 658.96 1444.5 624.17L1275 687V1013.57L1833 1012.48V582.99H1693.7V583Z" fill="black" fill-opacity="0.35"/>
<path d="M541 257V460.43L589 488H1150V458.89L541 257Z" fill="black" fill-opacity="0.35"/>
<path d="M458 622V857L483 847V622H458Z" fill="black" fill-opacity="0.35"/>
<path d="M1226 1014V702L1201 711V1014H1226Z" fill="black" fill-opacity="0.35"/>
<path d="M538 934.87L1147 729.6L1150 996.15L1132 1012L538 1016.57V934.87Z" fill="black" fill-opacity="0.35"/>
<path d="M539 157.13L1148 362.4L1151 95.8502L1133 80.0002L539 75.4302V157.13Z" fill="black" fill-opacity="0.35"/>
<path d="M242 1015L240 1007L413 951V1015H242Z" fill="black" fill-opacity="0.35"/>
<path d="M247 70L245 78L418 134V70H247Z" fill="black" fill-opacity="0.35"/>
<path d="M1226 75V387L1201 378V75H1226Z" fill="black" fill-opacity="0.35"/>
<path d="M1559 629C1608.15 629 1648 589.153 1648 540C1648 490.847 1608.15 451 1559 451C1509.85 451 1470 490.847 1470 540C1470 589.153 1509.85 629 1559 629Z" fill="black" fill-opacity="0.35"/>
<path d="M470.81 595.28C501.445 595.28 526.28 570.445 526.28 539.81C526.28 509.175 501.445 484.34 470.81 484.34C440.175 484.34 415.34 509.175 415.34 539.81C415.34 570.445 440.175 595.28 470.81 595.28Z" fill="black" fill-opacity="0.35"/>
<path d="M531 868L761 794L769 814L531 890.45V868Z" fill="black" fill-opacity="0.35"/>
<path d="M781 788L1150 665.77V686L789 807L781 788Z" fill="black" fill-opacity="0.35"/>
<path d="M169 1010L413 930.28V908.83L163 990L169 1010Z" fill="black" fill-opacity="0.35"/>
<path d="M1275 623.38L1373 592L1381.94 609.19L1275.23 643.3L1275 623.38Z" fill="black" fill-opacity="0.35"/>
<path d="M527.17 212.04L757.17 286.04L765.17 266.04L527.17 189.6V212.04Z" fill="black" fill-opacity="0.35"/>
<path d="M777.17 292.04L1146.17 414.28V394.04L785.17 273.04L777.17 292.04Z" fill="black" fill-opacity="0.35"/>
<path d="M165.17 70.04L409.17 149.77V171.21L159.17 90.04L165.17 70.04Z" fill="black" fill-opacity="0.35"/>
<path d="M1271.17 456.66L1369.17 488.04L1378.11 470.85L1271.4 436.74L1271.17 456.66Z" fill="black" fill-opacity="0.35"/>
<path d="M0 0H50.7L0 98.45V0Z" fill="black" fill-opacity="0.35"/>
<path d="M0 999.72L45.6 1080H0V999.72Z" fill="black" fill-opacity="0.35"/>
<path d="M94 988L90 973L324 895V886.36L390 867V835.3L411 829V886.87L94 988Z" fill="black" fill-opacity="0.35"/>
<path d="M93 98H122.19L264 145L256 170L93 115.3V98Z" fill="black" fill-opacity="0.35"/>
<path d="M274 154L409.17 201.09V246.28L383 243V216L326.96 200.14L327 193L268 174L274 154Z" fill="black" fill-opacity="0.35"/>
<path d="M342 532H312V551H342V532Z" fill="black" fill-opacity="0.35"/>
<path d="M349 436H312V455H349V436Z" fill="black" fill-opacity="0.35"/>
<path d="M458 953.26L483 946.11V1010H458V953.26Z" fill="black" fill-opacity="0.35"/>
<path d="M457 73.1699H482V140.57L457 131.13V73.1699Z" fill="black" fill-opacity="0.35"/>
<path d="M457 169.68L486 179V201.09L457 190.87V169.68Z" fill="black" fill-opacity="0.35"/>
<path d="M458 891.72L483 883.55V907L458 914.96V891.72Z" fill="black" fill-opacity="0.35"/>
<path d="M381 670H354V718H381V670Z" fill="black" fill-opacity="0.35"/>
<path d="M1229 531H1199V550H1229V531Z" fill="black" fill-opacity="0.35"/>
<path d="M1198 412L1225 422V444.79L1198 435V412Z" fill="black" fill-opacity="0.35"/>
<path d="M1198 646.19L1225 638V661L1198 669V646.19Z" fill="black" fill-opacity="0.35"/>
<path d="M1848 809.94H1833V856.58H1848V809.94Z" fill="black" fill-opacity="0.35"/>
<path d="M1281.23 67.5598V394.13L1449.32 456.43C1475.11 420.73 1517.09 397.49 1564.5 397.49C1628.54 397.49 1682.66 439.88 1700.37 498.13H1839.23V68.6398L1281.23 67.5498V67.5598Z" fill="black" fill-opacity="0.35"/>
</g>
</g>
<rect opacity="0.3" x="-36" width="1963.8" height="1103" fill="url(#paint0_radial_2320_3659)"/>
<g opacity="0.3" filter="url(#filter1_f_2320_3659)">
<ellipse cx="682" cy="849.494" rx="132.5" ry="117.396" fill="url(#paint1_radial_2320_3659)"/>
</g>
<g opacity="0.5" filter="url(#filter2_f_2320_3659)">
<ellipse cx="693.5" cy="851.941" rx="85" ry="74" fill="url(#paint2_radial_2320_3659)"/>
</g>
<g opacity="0.5">
<ellipse cx="704.713" cy="886.553" rx="9.22905" ry="10.7438" transform="rotate(-17.3727 704.713 886.553)" fill="#1B4B82"/>
<rect x="703.599" y="887.978" width="2.97711" height="41.5036" transform="rotate(-17.3727 703.599 887.978)" fill="#1B4B82"/>
<circle cx="716.729" cy="924.941" r="4" fill="#1B4B82"/>
</g>
<ellipse opacity="0.5" cx="704.713" cy="886.553" rx="9.22905" ry="10.7438" transform="rotate(-17.3727 704.713 886.553)" fill="#1B4B82"/>
<g opacity="0.3" filter="url(#filter3_f_2320_3659)">
<ellipse cx="1071" cy="688.951" rx="132.5" ry="102.348" fill="url(#paint3_radial_2320_3659)"/>
</g>
<g opacity="0.5" filter="url(#filter4_f_2320_3659)">
<ellipse cx="1081" cy="717.3" rx="85" ry="74" fill="url(#paint4_radial_2320_3659)"/>
</g>
<g opacity="0.5">
<ellipse cx="1096.71" cy="761.889" rx="9.22905" ry="10.7438" transform="rotate(-17.3727 1096.71 761.889)" fill="#215085"/>
<rect x="1095.6" y="763.313" width="2.97711" height="41.5036" transform="rotate(-17.3727 1095.6 763.313)" fill="#215085"/>
<circle cx="1108.73" cy="800.277" r="4" fill="#215085"/>
</g>
<ellipse opacity="0.5" cx="1096.71" cy="761.889" rx="9.22905" ry="10.7438" transform="rotate(-17.3727 1096.71 761.889)" fill="#1B4B82"/>
<g opacity="0.3" filter="url(#filter5_f_2320_3659)">
<ellipse cx="668.797" cy="238.203" rx="132.5" ry="117.396" transform="rotate(-135 668.797 238.203)" fill="url(#paint5_radial_2320_3659)"/>
</g>
<g opacity="0.5" filter="url(#filter6_f_2320_3659)">
<ellipse cx="662.395" cy="228.341" rx="85" ry="74" transform="rotate(-135 662.395 228.341)" fill="url(#paint6_radial_2320_3659)"/>
</g>
<g opacity="0.5">
<ellipse cx="678.94" cy="195.938" rx="9.22905" ry="10.7438" transform="rotate(-152.373 678.94 195.938)" fill="#1B4B82"/>
<rect x="680.736" y="195.718" width="2.97711" height="41.5036" transform="rotate(-152.373 680.736 195.718)" fill="#1B4B82"/>
<circle cx="697.589" cy="160.297" r="4" transform="rotate(-135 697.589 160.297)" fill="#1B4B82"/>
</g>
<ellipse opacity="0.5" cx="678.94" cy="195.938" rx="9.22905" ry="10.7438" transform="rotate(-152.373 678.94 195.938)" fill="#1B4B82"/>
<g opacity="0.3" filter="url(#filter7_f_2320_3659)">
<ellipse cx="1015.95" cy="339.918" rx="132.5" ry="117.396" transform="rotate(-135 1015.95 339.918)" fill="url(#paint7_radial_2320_3659)"/>
</g>
<g opacity="0.5" filter="url(#filter8_f_2320_3659)">
<ellipse cx="1009.55" cy="330.055" rx="85" ry="74" transform="rotate(-135 1009.55 330.055)" fill="url(#paint8_radial_2320_3659)"/>
</g>
<g opacity="0.5">
<ellipse cx="1026.1" cy="297.653" rx="9.22905" ry="10.7438" transform="rotate(-152.373 1026.1 297.653)" fill="#1B4B82"/>
<rect x="1027.89" y="297.433" width="2.97711" height="41.5036" transform="rotate(-152.373 1027.89 297.433)" fill="#295689"/>
<circle cx="1044.75" cy="262.012" r="4" transform="rotate(-135 1044.75 262.012)" fill="#275588"/>
</g>
<ellipse opacity="0.5" cx="1026.1" cy="297.653" rx="9.22905" ry="10.7438" transform="rotate(-152.373 1026.1 297.653)" fill="#1B4B82"/>
<g opacity="0.3" filter="url(#filter9_f_2320_3659)">
<ellipse cx="1595.35" cy="657.896" rx="132.5" ry="117.396" fill="url(#paint9_radial_2320_3659)"/>
</g>
<g opacity="0.5" filter="url(#filter10_f_2320_3659)">
<ellipse cx="1606.85" cy="660.344" rx="85" ry="74" fill="url(#paint10_radial_2320_3659)"/>
</g>
<g opacity="0.5">
<ellipse cx="1618.07" cy="694.955" rx="9.22905" ry="10.7438" transform="rotate(-17.3727 1618.07 694.955)" fill="#1B4B82"/>
<rect x="1616.95" y="696.38" width="2.97711" height="41.5036" transform="rotate(-17.3727 1616.95 696.38)" fill="#1B4B82"/>
<circle cx="1630.08" cy="733.344" r="4" fill="#1B4B82"/>
</g>
<ellipse opacity="0.5" cx="1618.07" cy="694.955" rx="9.22905" ry="10.7438" transform="rotate(-17.3727 1618.07 694.955)" fill="#1B4B82"/>
<g opacity="0.3" filter="url(#filter11_f_2320_3659)">
<ellipse cx="1515.36" cy="427.213" rx="132.5" ry="117.396" transform="rotate(177.625 1515.36 427.213)" fill="url(#paint11_radial_2320_3659)"/>
</g>
<g opacity="0.5" filter="url(#filter12_f_2320_3659)">
<ellipse cx="1503.77" cy="425.244" rx="85" ry="74" transform="rotate(177.625 1503.77 425.244)" fill="url(#paint12_radial_2320_3659)"/>
</g>
<g opacity="0.5">
<ellipse cx="1491.13" cy="391.127" rx="9.22905" ry="10.7438" transform="rotate(160.252 1491.13 391.127)" fill="#1B4B82"/>
<rect x="1492.19" y="389.658" width="2.97711" height="41.5036" transform="rotate(160.252 1492.19 389.658)" fill="#1B4B82"/>
<circle cx="1477.54" cy="353.27" r="4" transform="rotate(177.625 1477.54 353.27)" fill="#1B4B82"/>
</g>
<ellipse opacity="0.5" cx="1491.13" cy="391.127" rx="9.22905" ry="10.7438" transform="rotate(160.252 1491.13 391.127)" fill="#1B4B82"/>
</g>
<defs>
<filter id="filter0_d_2320_3659" x="0" y="0" width="1893" height="1090" filterUnits="userSpaceOnUse" color-interpolation-filters="sRGB">
<feFlood flood-opacity="0" result="BackgroundImageFix"/>
<feColorMatrix in="SourceAlpha" type="matrix" values="0 0 0 0 0 0 0 0 0 0 0 0 0 0 0 0 0 0 127 0" result="hardAlpha"/>
<feOffset dx="6" dy="6"/>
<feGaussianBlur stdDeviation="2"/>
<feComposite in2="hardAlpha" operator="out"/>
<feColorMatrix type="matrix" values="0 0 0 0 0 0 0 0 0 0 0 0 0 0 0 0 0 0 0.5 0"/>
<feBlend mode="normal" in2="BackgroundImageFix" result="effect1_dropShadow_2320_3659"/>
<feBlend mode="normal" in="SourceGraphic" in2="effect1_dropShadow_2320_3659" result="shape"/>
</filter>
<filter id="filter1_f_2320_3659" x="520.8" y="703.398" width="322.4" height="292.193" filterUnits="userSpaceOnUse" color-interpolation-filters="sRGB">
<feFlood flood-opacity="0" result="BackgroundImageFix"/>
<feBlend mode="normal" in="SourceGraphic" in2="BackgroundImageFix" result="shape"/>
<feGaussianBlur stdDeviation="14.35" result="effect1_foregroundBlur_2320_3659"/>
</filter>
<filter id="filter2_f_2320_3659" x="592.9" y="762.341" width="201.2" height="179.2" filterUnits="userSpaceOnUse" color-interpolation-filters="sRGB">
<feFlood flood-opacity="0" result="BackgroundImageFix"/>
<feBlend mode="normal" in="SourceGraphic" in2="BackgroundImageFix" result="shape"/>
<feGaussianBlur stdDeviation="7.8" result="effect1_foregroundBlur_2320_3659"/>
</filter>
<filter id="filter3_f_2320_3659" x="909.8" y="557.904" width="322.4" height="262.095" filterUnits="userSpaceOnUse" color-interpolation-filters="sRGB">
<feFlood flood-opacity="0" result="BackgroundImageFix"/>
<feBlend mode="normal" in="SourceGraphic" in2="BackgroundImageFix" result="shape"/>
<feGaussianBlur stdDeviation="14.35" result="effect1_foregroundBlur_2320_3659"/>
</filter>
<filter id="filter4_f_2320_3659" x="980.4" y="627.7" width="201.2" height="179.2" filterUnits="userSpaceOnUse" color-interpolation-filters="sRGB">
<feFlood flood-opacity="0" result="BackgroundImageFix"/>
<feBlend mode="normal" in="SourceGraphic" in2="BackgroundImageFix" result="shape"/>
<feGaussianBlur stdDeviation="7.8" result="effect1_foregroundBlur_2320_3659"/>
</filter>
<filter id="filter5_f_2320_3659" x="514.919" y="84.3249" width="307.755" height="307.755" filterUnits="userSpaceOnUse" color-interpolation-filters="sRGB">
<feFlood flood-opacity="0" result="BackgroundImageFix"/>
<feBlend mode="normal" in="SourceGraphic" in2="BackgroundImageFix" result="shape"/>
<feGaussianBlur stdDeviation="14.35" result="effect1_foregroundBlur_2320_3659"/>
</filter>
<filter id="filter6_f_2320_3659" x="567.104" y="133.049" width="190.583" height="190.582" filterUnits="userSpaceOnUse" color-interpolation-filters="sRGB">
<feFlood flood-opacity="0" result="BackgroundImageFix"/>
<feBlend mode="normal" in="SourceGraphic" in2="BackgroundImageFix" result="shape"/>
<feGaussianBlur stdDeviation="7.8" result="effect1_foregroundBlur_2320_3659"/>
</filter>
<filter id="filter7_f_2320_3659" x="862.076" y="186.04" width="307.755" height="307.755" filterUnits="userSpaceOnUse" color-interpolation-filters="sRGB">
<feFlood flood-opacity="0" result="BackgroundImageFix"/>
<feBlend mode="normal" in="SourceGraphic" in2="BackgroundImageFix" result="shape"/>
<feGaussianBlur stdDeviation="14.35" result="effect1_foregroundBlur_2320_3659"/>
</filter>
<filter id="filter8_f_2320_3659" x="914.261" y="234.764" width="190.583" height="190.582" filterUnits="userSpaceOnUse" color-interpolation-filters="sRGB">
<feFlood flood-opacity="0" result="BackgroundImageFix"/>
<feBlend mode="normal" in="SourceGraphic" in2="BackgroundImageFix" result="shape"/>
<feGaussianBlur stdDeviation="7.8" result="effect1_foregroundBlur_2320_3659"/>
</filter>
<filter id="filter9_f_2320_3659" x="1434.15" y="511.8" width="322.4" height="292.193" filterUnits="userSpaceOnUse" color-interpolation-filters="sRGB">
<feFlood flood-opacity="0" result="BackgroundImageFix"/>
<feBlend mode="normal" in="SourceGraphic" in2="BackgroundImageFix" result="shape"/>
<feGaussianBlur stdDeviation="14.35" result="effect1_foregroundBlur_2320_3659"/>
</filter>
<filter id="filter10_f_2320_3659" x="1506.25" y="570.744" width="201.2" height="179.2" filterUnits="userSpaceOnUse" color-interpolation-filters="sRGB">
<feFlood flood-opacity="0" result="BackgroundImageFix"/>
<feBlend mode="normal" in="SourceGraphic" in2="BackgroundImageFix" result="shape"/>
<feGaussianBlur stdDeviation="7.8" result="effect1_foregroundBlur_2320_3659"/>
</filter>
<filter id="filter11_f_2320_3659" x="1354.18" y="281.087" width="322.354" height="292.253" filterUnits="userSpaceOnUse" color-interpolation-filters="sRGB">
<feFlood flood-opacity="0" result="BackgroundImageFix"/>
<feBlend mode="normal" in="SourceGraphic" in2="BackgroundImageFix" result="shape"/>
<feGaussianBlur stdDeviation="14.35" result="effect1_foregroundBlur_2320_3659"/>
</filter>
<filter id="filter12_f_2320_3659" x="1403.19" y="335.623" width="201.167" height="179.243" filterUnits="userSpaceOnUse" color-interpolation-filters="sRGB">
<feFlood flood-opacity="0" result="BackgroundImageFix"/>
<feBlend mode="normal" in="SourceGraphic" in2="BackgroundImageFix" result="shape"/>
<feGaussianBlur stdDeviation="7.8" result="effect1_foregroundBlur_2320_3659"/>
</filter>
<radialGradient id="paint0_radial_2320_3659" cx="0" cy="0" r="1" gradientUnits="userSpaceOnUse" gradientTransform="translate(964 537) rotate(87.8876) scale(488.332 727.999)">
<stop stop-color="#D5E8EB"/>
<stop offset="1" stop-color="#0D6F7C" stop-opacity="0.5"/>
</radialGradient>
<radialGradient id="paint1_radial_2320_3659" cx="0" cy="0" r="1" gradientUnits="userSpaceOnUse" gradientTransform="translate(682 849.494) rotate(90) scale(101.396 114.442)">
<stop offset="0.035" stop-color="#FFFACA" stop-opacity="0.5"/>
<stop offset="0.95" stop-color="#FFFACA" stop-opacity="0"/>
</radialGradient>
<radialGradient id="paint2_radial_2320_3659" cx="0" cy="0" r="1" gradientUnits="userSpaceOnUse" gradientTransform="translate(693.5 851.941) rotate(90) scale(55.8686 64.1733)">
<stop offset="0.035" stop-color="#FFFACA" stop-opacity="0.3"/>
<stop offset="0.95" stop-color="#FFFACA" stop-opacity="0"/>
</radialGradient>
<radialGradient id="paint3_radial_2320_3659" cx="0" cy="0" r="1" gradientUnits="userSpaceOnUse" gradientTransform="translate(1071 688.951) rotate(90) scale(88.3987 114.442)">
<stop offset="0.035" stop-color="#FFFACA" stop-opacity="0.5"/>
<stop offset="0.95" stop-color="#FFFACA" stop-opacity="0"/>
</radialGradient>
<radialGradient id="paint4_radial_2320_3659" cx="0" cy="0" r="1" gradientUnits="userSpaceOnUse" gradientTransform="translate(1081 717.3) rotate(90) scale(55.8686 64.1733)">
<stop offset="0.035" stop-color="#FFFACA" stop-opacity="0.3"/>
<stop offset="0.95" stop-color="#FFFACA" stop-opacity="0"/>
</radialGradient>
<radialGradient id="paint5_radial_2320_3659" cx="0" cy="0" r="1" gradientUnits="userSpaceOnUse" gradientTransform="translate(668.797 238.203) rotate(90) scale(101.396 114.442)">
<stop offset="0.035" stop-color="#FFFACA" stop-opacity="0.5"/>
<stop offset="0.95" stop-color="#FFFACA" stop-opacity="0"/>
</radialGradient>
<radialGradient id="paint6_radial_2320_3659" cx="0" cy="0" r="1" gradientUnits="userSpaceOnUse" gradientTransform="translate(662.395 228.341) rotate(90) scale(55.8686 64.1733)">
<stop offset="0.035" stop-color="#FFFACA" stop-opacity="0.3"/>
<stop offset="0.95" stop-color="#FFFACA" stop-opacity="0"/>
</radialGradient>
<radialGradient id="paint7_radial_2320_3659" cx="0" cy="0" r="1" gradientUnits="userSpaceOnUse" gradientTransform="translate(1015.95 339.918) rotate(90) scale(101.396 114.442)">
<stop offset="0.035" stop-color="#FFFACA" stop-opacity="0.5"/>
<stop offset="0.95" stop-color="#FFFACA" stop-opacity="0"/>
</radialGradient>
<radialGradient id="paint8_radial_2320_3659" cx="0" cy="0" r="1" gradientUnits="userSpaceOnUse" gradientTransform="translate(1009.55 330.055) rotate(90) scale(55.8686 64.1733)">
<stop offset="0.035" stop-color="#FFFACA" stop-opacity="0.3"/>
<stop offset="0.95" stop-color="#FFFACA" stop-opacity="0"/>
</radialGradient>
<radialGradient id="paint9_radial_2320_3659" cx="0" cy="0" r="1" gradientUnits="userSpaceOnUse" gradientTransform="translate(1595.35 657.896) rotate(90) scale(101.396 114.442)">
<stop offset="0.035" stop-color="#FFFACA" stop-opacity="0.5"/>
<stop offset="0.95" stop-color="#FFFACA" stop-opacity="0"/>
</radialGradient>
<radialGradient id="paint10_radial_2320_3659" cx="0" cy="0" r="1" gradientUnits="userSpaceOnUse" gradientTransform="translate(1606.85 660.344) rotate(90) scale(55.8686 64.1733)">
<stop offset="0.035" stop-color="#FFFACA" stop-opacity="0.3"/>
<stop offset="0.95" stop-color="#FFFACA" stop-opacity="0"/>
</radialGradient>
<radialGradient id="paint11_radial_2320_3659" cx="0" cy="0" r="1" gradientUnits="userSpaceOnUse" gradientTransform="translate(1515.36 427.213) rotate(90) scale(101.396 114.442)">
<stop offset="0.035" stop-color="#FFFACA" stop-opacity="0.5"/>
<stop offset="0.95" stop-color="#FFFACA" stop-opacity="0"/>
</radialGradient>
<radialGradient id="paint12_radial_2320_3659" cx="0" cy="0" r="1" gradientUnits="userSpaceOnUse" gradientTransform="translate(1503.77 425.244) rotate(90) scale(55.8686 64.1733)">
<stop offset="0.035" stop-color="#FFFACA" stop-opacity="0.3"/>
<stop offset="0.95" stop-color="#FFFACA" stop-opacity="0"/>
</radialGradient>
<clipPath id="clip0_2320_3659">
<rect width="1920" height="1080" fill="white"/>
</clipPath>
</defs>
</svg>
