<svg width="1921" height="1081" viewBox="0 0 1921 1081" fill="none" xmlns="http://www.w3.org/2000/svg">
<g opacity="0.33">
<path opacity="0.5" d="M1920.75 0.5H0.75V1080.5H1920.75V0.5Z" fill="#01472E"/>
<g opacity="0.3" filter="url(#filter0_d_2036_4593)">
<path d="M97.75 499.5V163.5L290.75 235.5V499.5H97.75Z" fill="black" fill-opacity="0.35"/>
<path d="M290.75 528.5H97.75V553.5H290.75V528.5Z" fill="black" fill-opacity="0.35"/>
<path d="M457.75 458.5V223.5L482.75 233.5V458.5H457.75Z" fill="black" fill-opacity="0.35"/>
<path d="M820.75 528.5H575.75V553.5H820.75V528.5Z" fill="black" fill-opacity="0.35"/>
<path d="M1883.75 498.5V84.5H1858.75V498.5H1883.75Z" fill="black" fill-opacity="0.35"/>
<path d="M1883.75 749.5V583.5H1858.75V749.5H1883.75Z" fill="black" fill-opacity="0.35"/>
<path d="M1883.75 1014.5V913.5H1858.75V1014.5H1883.75Z" fill="black" fill-opacity="0.35"/>
<path d="M1150.75 1033.5H538.75V1053.5H1150.75V1033.5Z" fill="black" fill-opacity="0.35"/>
<path d="M1150.75 28.5H538.75V48.5H1150.75V28.5Z" fill="black" fill-opacity="0.35"/>
<path d="M413.75 1033.5H182.75V1053.5H413.75V1033.5Z" fill="black" fill-opacity="0.35"/>
<path d="M413.75 28.5H182.75V48.5H413.75V28.5Z" fill="black" fill-opacity="0.35"/>
<path d="M1833.75 1033.5H1270.75V1053.5H1833.75V1033.5Z" fill="black" fill-opacity="0.35"/>
<path d="M1833.75 28.5H1270.75V48.5H1833.75V28.5Z" fill="black" fill-opacity="0.35"/>
<path d="M1150.75 528.5H843.75V553.5H1150.75V528.5Z" fill="black" fill-opacity="0.35"/>
<path d="M1362.75 528.5H1270.75V553.5H1362.75V528.5Z" fill="black" fill-opacity="0.35"/>
<path d="M1833.75 528.5H1691.75V553.5H1833.75V528.5Z" fill="black" fill-opacity="0.35"/>
<path d="M97.75 582.5V918.5L290.75 846.5V582.5H97.75Z" fill="black" fill-opacity="0.35"/>
<path d="M538.75 824.5V621.07L586.75 593.5H1147.75V622.61L538.75 824.5Z" fill="black" fill-opacity="0.35"/>
<path d="M1694.45 583.502C1676.08 640.642 1622.5 682.002 1559.25 682.002C1512.56 682.002 1471.13 659.462 1445.25 624.672L1275.75 687.502V1014.07L1833.75 1012.98V583.492H1694.45V583.502Z" fill="black" fill-opacity="0.35"/>
<path d="M541.75 257.5V460.93L589.75 488.5H1150.75V459.39L541.75 257.5Z" fill="black" fill-opacity="0.35"/>
<path d="M458.75 622.5V857.5L483.75 847.5V622.5H458.75Z" fill="black" fill-opacity="0.35"/>
<path d="M1226.75 1014.5V702.5L1201.75 711.5V1014.5H1226.75Z" fill="black" fill-opacity="0.35"/>
<path d="M538.75 935.372L1147.75 730.102L1150.75 996.652L1132.75 1012.5L538.75 1017.07V935.372Z" fill="black" fill-opacity="0.35"/>
<path d="M539.75 157.63L1148.75 362.9L1151.75 96.3497L1133.75 80.4997L539.75 75.9297V157.63Z" fill="black" fill-opacity="0.35"/>
<path d="M242.75 1015.5L240.75 1007.5L413.75 951.5V1015.5H242.75Z" fill="black" fill-opacity="0.35"/>
<path d="M247.75 70.5L245.75 78.5L418.75 134.5V70.5H247.75Z" fill="black" fill-opacity="0.35"/>
<path d="M1226.75 75.5V387.5L1201.75 378.5V75.5H1226.75Z" fill="black" fill-opacity="0.35"/>
<path d="M1559.75 629.5C1608.9 629.5 1648.75 589.653 1648.75 540.5C1648.75 491.347 1608.9 451.5 1559.75 451.5C1510.6 451.5 1470.75 491.347 1470.75 540.5C1470.75 589.653 1510.6 629.5 1559.75 629.5Z" fill="black" fill-opacity="0.35"/>
<path d="M471.56 595.78C502.195 595.78 527.03 570.945 527.03 540.31C527.03 509.675 502.195 484.84 471.56 484.84C440.925 484.84 416.09 509.675 416.09 540.31C416.09 570.945 440.925 595.78 471.56 595.78Z" fill="black" fill-opacity="0.35"/>
<path d="M531.75 868.5L761.75 794.5L769.75 814.5L531.75 890.95V868.5Z" fill="black" fill-opacity="0.35"/>
<path d="M781.75 788.5L1150.75 666.27V686.5L789.75 807.5L781.75 788.5Z" fill="black" fill-opacity="0.35"/>
<path d="M169.75 1010.5L413.75 930.778V909.328L163.75 990.498L169.75 1010.5Z" fill="black" fill-opacity="0.35"/>
<path d="M1275.75 623.88L1373.75 592.5L1382.69 609.69L1275.98 643.8L1275.75 623.88Z" fill="black" fill-opacity="0.35"/>
<path d="M527.92 212.542L757.92 286.542L765.92 266.542L527.92 190.102V212.542Z" fill="black" fill-opacity="0.35"/>
<path d="M777.92 292.539L1146.92 414.779V394.539L785.92 273.539L777.92 292.539Z" fill="black" fill-opacity="0.35"/>
<path d="M165.92 70.5391L409.92 150.269V171.709L159.92 90.5391L165.92 70.5391Z" fill="black" fill-opacity="0.35"/>
<path d="M1271.92 457.162L1369.92 488.542L1378.86 471.352L1272.15 437.242L1271.92 457.162Z" fill="black" fill-opacity="0.35"/>
<path d="M0.75 0.5H51.45L0.75 98.95V0.5Z" fill="black" fill-opacity="0.35"/>
<path d="M0.75 1000.22L46.35 1080.5H0.75V1000.22Z" fill="black" fill-opacity="0.35"/>
<path d="M94.75 988.5L90.75 973.5L324.75 895.5V886.86L390.75 867.5V835.8L411.75 829.5V887.37L94.75 988.5Z" fill="black" fill-opacity="0.35"/>
<path d="M93.75 98.5H122.94L264.75 145.5L256.75 170.5L93.75 115.8V98.5Z" fill="black" fill-opacity="0.35"/>
<path d="M274.75 154.5L409.92 201.59V246.78L383.75 243.5V216.5L327.71 200.64L327.75 193.5L268.75 174.5L274.75 154.5Z" fill="black" fill-opacity="0.35"/>
<path d="M342.75 532.5H312.75V551.5H342.75V532.5Z" fill="black" fill-opacity="0.35"/>
<path d="M349.75 436.5H312.75V455.5H349.75V436.5Z" fill="black" fill-opacity="0.35"/>
<path d="M458.75 953.759L483.75 946.609V1010.5H458.75V953.759Z" fill="black" fill-opacity="0.35"/>
<path d="M457.75 73.6719H482.75V141.072L457.75 131.632V73.6719Z" fill="black" fill-opacity="0.35"/>
<path d="M457.75 170.18L486.75 179.5V201.59L457.75 191.37V170.18Z" fill="black" fill-opacity="0.35"/>
<path d="M458.75 892.221L483.75 884.051V907.501L458.75 915.461V892.221Z" fill="black" fill-opacity="0.35"/>
<path d="M381.75 670.5H354.75V718.5H381.75V670.5Z" fill="black" fill-opacity="0.35"/>
<path d="M1229.75 531.5H1199.75V550.5H1229.75V531.5Z" fill="black" fill-opacity="0.35"/>
<path d="M1198.75 412.5L1225.75 422.5V445.29L1198.75 435.5V412.5Z" fill="black" fill-opacity="0.35"/>
<path d="M1198.75 646.69L1225.75 638.5V661.5L1198.75 669.5V646.69Z" fill="black" fill-opacity="0.35"/>
<path d="M1848.75 810.441H1833.75V857.081H1848.75V810.441Z" fill="black" fill-opacity="0.35"/>
<path d="M1281.98 68.0608V394.631L1450.07 456.931C1475.86 421.231 1517.84 397.991 1565.25 397.991C1629.29 397.991 1683.41 440.381 1701.12 498.631H1839.98V69.1408L1281.98 68.0508V68.0608Z" fill="black" fill-opacity="0.35"/>
</g>
</g>
<defs>
<filter id="filter0_d_2036_4593" x="0.75" y="0.5" width="1893" height="1090" filterUnits="userSpaceOnUse" color-interpolation-filters="sRGB">
<feFlood flood-opacity="0" result="BackgroundImageFix"/>
<feColorMatrix in="SourceAlpha" type="matrix" values="0 0 0 0 0 0 0 0 0 0 0 0 0 0 0 0 0 0 127 0" result="hardAlpha"/>
<feOffset dx="6" dy="6"/>
<feGaussianBlur stdDeviation="2"/>
<feComposite in2="hardAlpha" operator="out"/>
<feColorMatrix type="matrix" values="0 0 0 0 0 0 0 0 0 0 0 0 0 0 0 0 0 0 0.5 0"/>
<feBlend mode="normal" in2="BackgroundImageFix" result="effect1_dropShadow_2036_4593"/>
<feBlend mode="normal" in="SourceGraphic" in2="effect1_dropShadow_2036_4593" result="shape"/>
</filter>
</defs>
</svg>
