<svg width="25" height="25" viewBox="0 0 25 25" fill="none" xmlns="http://www.w3.org/2000/svg">
<path d="M12.7889 16.7565C13.3696 16.7565 13.916 16.6456 14.4281 16.4239C14.9402 16.2022 15.3916 15.896 15.7823 15.5053C16.1783 15.1146 16.4845 14.6632 16.7009 14.1511C16.9226 13.6337 17.0335 13.0847 17.0335 12.504C17.0335 11.9179 16.9226 11.3689 16.7009 10.8568C16.4845 10.3394 16.1783 9.88539 15.7823 9.49472C15.3916 9.10405 14.9402 8.79784 14.4281 8.57611C13.916 8.35438 13.3696 8.24351 12.7889 8.24351C12.2029 8.24351 11.6538 8.35438 11.1417 8.57611C10.6296 8.79784 10.1756 9.10405 9.77966 9.49472C9.38899 9.88539 9.08279 10.3394 8.86105 10.8568C8.6446 11.3689 8.53637 11.9179 8.53637 12.504C8.53637 13.0847 8.6446 13.6337 8.86105 14.1511C9.08279 14.6632 9.38899 15.1146 9.77966 15.5053C10.1756 15.896 10.6296 16.2022 11.1417 16.4239C11.6538 16.6456 12.2029 16.7565 12.7889 16.7565ZM12.7889 15.0935C12.3138 15.0935 11.8809 14.9773 11.4902 14.7451C11.0995 14.5075 10.7854 14.1934 10.5478 13.8027C10.3155 13.4067 10.1994 12.9738 10.1994 12.504C10.1994 12.0341 10.3155 11.6038 10.5478 11.2132C10.7854 10.8172 11.0995 10.5004 11.4902 10.2629C11.8809 10.0253 12.3138 9.90651 12.7889 9.90651C13.2588 9.90651 13.689 10.0253 14.0797 10.2629C14.4704 10.5004 14.7819 10.8172 15.0142 11.2132C15.2517 11.6038 15.3705 12.0341 15.3705 12.504C15.3705 12.9738 15.2517 13.4067 15.0142 13.8027C14.7819 14.1934 14.4704 14.5075 14.0797 14.7451C13.689 14.9773 13.2588 15.0935 12.7889 15.0935ZM12.7889 6.84976C13.0265 6.84976 13.2297 6.76529 13.3987 6.59635C13.5729 6.42213 13.66 6.21623 13.66 5.97866V4.37901C13.66 4.14144 13.5729 3.93555 13.3987 3.76133C13.2297 3.58711 13.0265 3.5 12.7889 3.5C12.5513 3.5 12.3454 3.58711 12.1712 3.76133C12.0023 3.93555 11.9178 4.14144 11.9178 4.37901V5.97866C11.9178 6.21623 12.0023 6.42213 12.1712 6.59635C12.3454 6.76529 12.5513 6.84976 12.7889 6.84976ZM16.7801 8.5286C16.949 8.69226 17.1549 8.77409 17.3978 8.77409C17.6406 8.77409 17.8465 8.68962 18.0155 8.52068L19.1479 7.38033C19.3168 7.21667 19.3987 7.01342 19.3934 6.77057C19.3934 6.52244 19.3089 6.3139 19.14 6.14496C18.9763 5.9813 18.7731 5.90211 18.5302 5.90739C18.2874 5.90739 18.0841 5.98922 17.9204 6.15288L16.7722 7.30114C16.6085 7.4648 16.5267 7.66806 16.5267 7.91091C16.532 8.15376 16.6164 8.35966 16.7801 8.5286ZM18.4352 12.504C18.4352 12.7363 18.5197 12.9395 18.6886 13.1137C18.8628 13.2827 19.0687 13.3671 19.3063 13.3671H20.9138C21.1461 13.3671 21.3468 13.2827 21.5157 13.1137C21.6899 12.9395 21.777 12.7363 21.777 12.504C21.777 12.2664 21.6899 12.0631 21.5157 11.8942C21.3468 11.72 21.1461 11.6329 20.9138 11.6329H19.3063C19.0687 11.6329 18.8628 11.72 18.6886 11.8942C18.5197 12.0631 18.4352 12.2664 18.4352 12.504ZM16.7722 16.4952C16.6085 16.6641 16.5267 16.87 16.5267 17.1128C16.532 17.3504 16.6164 17.551 16.7801 17.7147L17.9284 18.863C18.092 19.0266 18.2953 19.1058 18.5381 19.1005C18.781 19.0952 18.9869 19.0134 19.1558 18.855C19.3195 18.6861 19.4013 18.4802 19.4013 18.2374C19.4013 17.9998 19.3168 17.7965 19.1479 17.6276L17.9996 16.4872C17.836 16.3236 17.6327 16.2444 17.3899 16.2497C17.147 16.2497 16.9411 16.3315 16.7722 16.4952ZM12.7889 18.1582C12.5513 18.1582 12.3454 18.2426 12.1712 18.4116C12.0023 18.5858 11.9178 18.789 11.9178 19.0213V20.6289C11.9178 20.8665 12.0023 21.0697 12.1712 21.2387C12.3454 21.4129 12.5513 21.5 12.7889 21.5C13.0265 21.5 13.2297 21.4129 13.3987 21.2387C13.5729 21.0697 13.66 20.8665 13.66 20.6289V19.0213C13.66 18.789 13.5729 18.5858 13.3987 18.4116C13.2297 18.2426 13.0265 18.1582 12.7889 18.1582ZM8.80562 16.4952C8.63668 16.3315 8.42815 16.2497 8.18002 16.2497C7.93717 16.2444 7.73391 16.3236 7.57025 16.4872L6.42991 17.6197C6.26097 17.7886 6.17386 17.9919 6.16858 18.2294C6.16858 18.4723 6.25041 18.6782 6.41407 18.8471C6.58301 19.0108 6.7889 19.0926 7.03175 19.0926C7.2746 19.0979 7.4805 19.0213 7.64944 18.863L8.78978 17.7147C8.95344 17.551 9.03527 17.3504 9.03527 17.1128C9.04055 16.87 8.964 16.6641 8.80562 16.4952ZM7.14262 12.504C7.14262 12.2664 7.05551 12.0631 6.88129 11.8942C6.71235 11.72 6.50646 11.6329 6.26361 11.6329H4.66396C4.43167 11.6329 4.22841 11.72 4.05419 11.8942C3.88525 12.0631 3.80078 12.2664 3.80078 12.504C3.80078 12.7363 3.88525 12.9395 4.05419 13.1137C4.22841 13.2827 4.43167 13.3671 4.66396 13.3671H6.26361C6.50646 13.3671 6.71235 13.2827 6.88129 13.1137C7.05551 12.9395 7.14262 12.7363 7.14262 12.504ZM8.78978 8.5286C8.95344 8.36494 9.03527 8.16168 9.03527 7.91883C9.04055 7.6707 8.964 7.4648 8.80562 7.30114L7.66528 6.15288C7.49634 5.98922 7.29044 5.90739 7.04759 5.90739C6.80474 5.90211 6.60149 5.9813 6.43783 6.14496C6.26889 6.3139 6.18442 6.52244 6.18442 6.77057C6.18442 7.01342 6.26361 7.21403 6.42199 7.37242L7.56233 8.52068C7.72599 8.68434 7.92925 8.76881 8.1721 8.77409C8.41495 8.77409 8.62084 8.69226 8.78978 8.5286Z" fill="white" stroke="white" stroke-width="0.3"/>
</svg>
